<?xml version='1.0' encoding='UTF-8'?>
<svg width="47mm" height="47mm" version="1.1" viewBox="0 0 47 47" xmlns="http://www.w3.org/2000/svg"><path d="M3,3H4V4H3zM4,3H5V4H4zM5,3H6V4H5zM6,3H7V4H6zM7,3H8V4H7zM8,3H9V4H8zM9,3H10V4H9zM11,3H12V4H11zM15,3H16V4H15zM16,3H17V4H16zM18,3H19V4H18zM20,3H21V4H20zM23,3H24V4H23zM29,3H30V4H29zM31,3H32V4H31zM32,3H33V4H32zM33,3H34V4H33zM34,3H35V4H34zM35,3H36V4H35zM37,3H38V4H37zM38,3H39V4H38zM39,3H40V4H39zM40,3H41V4H40zM41,3H42V4H41zM42,3H43V4H42zM43,3H44V4H43zM3,4H4V5H3zM9,4H10V5H9zM11,4H12V5H11zM12,4H13V5H12zM13,4H14V5H13zM19,4H20V5H19zM22,4H23V5H22zM25,4H26V5H25zM26,4H27V5H26zM30,4H31V5H30zM31,4H32V5H31zM32,4H33V5H32zM35,4H36V5H35zM37,4H38V5H37zM43,4H44V5H43zM3,5H4V6H3zM5,5H6V6H5zM6,5H7V6H6zM7,5H8V6H7zM9,5H10V6H9zM11,5H12V6H11zM12,5H13V6H12zM13,5H14V6H13zM14,5H15V6H14zM15,5H16V6H15zM16,5H17V6H16zM18,5H19V6H18zM19,5H20V6H19zM23,5H24V6H23zM24,5H25V6H24zM27,5H28V6H27zM29,5H30V6H29zM31,5H32V6H31zM32,5H33V6H32zM33,5H34V6H33zM35,5H36V6H35zM37,5H38V6H37zM39,5H40V6H39zM40,5H41V6H40zM41,5H42V6H41zM43,5H44V6H43zM3,6H4V7H3zM5,6H6V7H5zM6,6H7V7H6zM7,6H8V7H7zM9,6H10V7H9zM13,6H14V7H13zM15,6H16V7H15zM17,6H18V7H17zM21,6H22V7H21zM23,6H24V7H23zM26,6H27V7H26zM27,6H28V7H27zM34,6H35V7H34zM35,6H36V7H35zM37,6H38V7H37zM39,6H40V7H39zM40,6H41V7H40zM41,6H42V7H41zM43,6H44V7H43zM3,7H4V8H3zM5,7H6V8H5zM6,7H7V8H6zM7,7H8V8H7zM9,7H10V8H9zM13,7H14V8H13zM14,7H15V8H14zM15,7H16V8H15zM17,7H18V8H17zM18,7H19V8H18zM19,7H20V8H19zM21,7H22V8H21zM22,7H23V8H22zM23,7H24V8H23zM26,7H27V8H26zM27,7H28V8H27zM29,7H30V8H29zM33,7H34V8H33zM34,7H35V8H34zM35,7H36V8H35zM37,7H38V8H37zM39,7H40V8H39zM40,7H41V8H40zM41,7H42V8H41zM43,7H44V8H43zM3,8H4V9H3zM9,8H10V9H9zM11,8H12V9H11zM15,8H16V9H15zM17,8H18V9H17zM18,8H19V9H18zM19,8H20V9H19zM24,8H25V9H24zM26,8H27V9H26zM28,8H29V9H28zM29,8H30V9H29zM30,8H31V9H30zM31,8H32V9H31zM32,8H33V9H32zM33,8H34V9H33zM37,8H38V9H37zM43,8H44V9H43zM3,9H4V10H3zM4,9H5V10H4zM5,9H6V10H5zM6,9H7V10H6zM7,9H8V10H7zM8,9H9V10H8zM9,9H10V10H9zM11,9H12V10H11zM13,9H14V10H13zM15,9H16V10H15zM17,9H18V10H17zM19,9H20V10H19zM21,9H22V10H21zM23,9H24V10H23zM25,9H26V10H25zM27,9H28V10H27zM29,9H30V10H29zM31,9H32V10H31zM33,9H34V10H33zM35,9H36V10H35zM37,9H38V10H37zM38,9H39V10H38zM39,9H40V10H39zM40,9H41V10H40zM41,9H42V10H41zM42,9H43V10H42zM43,9H44V10H43zM11,10H12V11H11zM12,10H13V11H12zM14,10H15V11H14zM15,10H16V11H15zM16,10H17V11H16zM17,10H18V11H17zM21,10H22V11H21zM23,10H24V11H23zM25,10H26V11H25zM26,10H27V11H26zM31,10H32V11H31zM5,11H6V12H5zM6,11H7V12H6zM7,11H8V12H7zM9,11H10V12H9zM11,11H12V12H11zM12,11H13V12H12zM13,11H14V12H13zM14,11H15V12H14zM16,11H17V12H16zM18,11H19V12H18zM19,11H20V12H19zM22,11H23V12H22zM23,11H24V12H23zM26,11H27V12H26zM27,11H28V12H27zM31,11H32V12H31zM32,11H33V12H32zM34,11H35V12H34zM35,11H36V12H35zM36,11H37V12H36zM37,11H38V12H37zM38,11H39V12H38zM41,11H42V12H41zM42,11H43V12H42zM43,11H44V12H43zM4,12H5V13H4zM5,12H6V13H5zM6,12H7V13H6zM7,12H8V13H7zM8,12H9V13H8zM10,12H11V13H10zM11,12H12V13H11zM13,12H14V13H13zM14,12H15V13H14zM16,12H17V13H16zM17,12H18V13H17zM19,12H20V13H19zM25,12H26V13H25zM26,12H27V13H26zM28,12H29V13H28zM29,12H30V13H29zM31,12H32V13H31zM33,12H34V13H33zM34,12H35V13H34zM35,12H36V13H35zM36,12H37V13H36zM37,12H38V13H37zM38,12H39V13H38zM39,12H40V13H39zM41,12H42V13H41zM42,12H43V13H42zM43,12H44V13H43zM5,13H6V14H5zM9,13H10V14H9zM10,13H11V14H10zM12,13H13V14H12zM14,13H15V14H14zM18,13H19V14H18zM19,13H20V14H19zM21,13H22V14H21zM22,13H23V14H22zM23,13H24V14H23zM25,13H26V14H25zM26,13H27V14H26zM28,13H29V14H28zM29,13H30V14H29zM30,13H31V14H30zM31,13H32V14H31zM35,13H36V14H35zM37,13H38V14H37zM39,13H40V14H39zM42,13H43V14H42zM3,14H4V15H3zM4,14H5V15H4zM5,14H6V15H5zM8,14H9V15H8zM14,14H15V15H14zM17,14H18V15H17zM18,14H19V15H18zM22,14H23V15H22zM24,14H25V15H24zM26,14H27V15H26zM30,14H31V15H30zM34,14H35V15H34zM35,14H36V15H35zM38,14H39V15H38zM40,14H41V15H40zM42,14H43V15H42zM43,14H44V15H43zM9,15H10V16H9zM10,15H11V16H10zM11,15H12V16H11zM15,15H16V16H15zM17,15H18V16H17zM18,15H19V16H18zM24,15H25V16H24zM28,15H29V16H28zM29,15H30V16H29zM30,15H31V16H30zM32,15H33V16H32zM34,15H35V16H34zM35,15H36V16H35zM40,15H41V16H40zM41,15H42V16H41zM42,15H43V16H42zM3,16H4V17H3zM5,16H6V17H5zM6,16H7V17H6zM10,16H11V17H10zM15,16H16V17H15zM16,16H17V17H16zM18,16H19V17H18zM22,16H23V17H22zM23,16H24V17H23zM24,16H25V17H24zM29,16H30V17H29zM30,16H31V17H30zM31,16H32V17H31zM33,16H34V17H33zM36,16H37V17H36zM37,16H38V17H37zM38,16H39V17H38zM39,16H40V17H39zM40,16H41V17H40zM42,16H43V17H42zM43,16H44V17H43zM4,17H5V18H4zM6,17H7V18H6zM8,17H9V18H8zM9,17H10V18H9zM10,17H11V18H10zM12,17H13V18H12zM13,17H14V18H13zM14,17H15V18H14zM19,17H20V18H19zM20,17H21V18H20zM22,17H23V18H22zM23,17H24V18H23zM25,17H26V18H25zM26,17H27V18H26zM28,17H29V18H28zM35,17H36V18H35zM36,17H37V18H36zM3,18H4V19H3zM6,18H7V19H6zM7,18H8V19H7zM8,18H9V19H8zM15,18H16V19H15zM16,18H17V19H16zM17,18H18V19H17zM18,18H19V19H18zM19,18H20V19H19zM20,18H21V19H20zM22,18H23V19H22zM23,18H24V19H23zM24,18H25V19H24zM26,18H27V19H26zM28,18H29V19H28zM29,18H30V19H29zM31,18H32V19H31zM33,18H34V19H33zM37,18H38V19H37zM38,18H39V19H38zM40,18H41V19H40zM42,18H43V19H42zM6,19H7V20H6zM9,19H10V20H9zM11,19H12V20H11zM16,19H17V20H16zM17,19H18V20H17zM22,19H23V20H22zM26,19H27V20H26zM27,19H28V20H27zM29,19H30V20H29zM32,19H33V20H32zM36,19H37V20H36zM38,19H39V20H38zM41,19H42V20H41zM42,19H43V20H42zM4,20H5V21H4zM6,20H7V21H6zM7,20H8V21H7zM8,20H9V21H8zM12,20H13V21H12zM13,20H14V21H13zM14,20H15V21H14zM16,20H17V21H16zM17,20H18V21H17zM18,20H19V21H18zM21,20H22V21H21zM23,20H24V21H23zM24,20H25V21H24zM26,20H27V21H26zM28,20H29V21H28zM33,20H34V21H33zM34,20H35V21H34zM37,20H38V21H37zM38,20H39V21H38zM39,20H40V21H39zM43,20H44V21H43zM5,21H6V22H5zM6,21H7V22H6zM7,21H8V22H7zM9,21H10V22H9zM11,21H12V22H11zM13,21H14V22H13zM14,21H15V22H14zM16,21H17V22H16zM18,21H19V22H18zM22,21H23V22H22zM24,21H25V22H24zM27,21H28V22H27zM28,21H29V22H28zM29,21H30V22H29zM30,21H31V22H30zM31,21H32V22H31zM33,21H34V22H33zM35,21H36V22H35zM39,21H40V22H39zM40,21H41V22H40zM3,22H4V23H3zM4,22H5V23H4zM8,22H9V23H8zM10,22H11V23H10zM13,22H14V23H13zM16,22H17V23H16zM17,22H18V23H17zM20,22H21V23H20zM21,22H22V23H21zM25,22H26V23H25zM28,22H29V23H28zM31,22H32V23H31zM34,22H35V23H34zM37,22H38V23H37zM39,22H40V23H39zM40,22H41V23H40zM43,22H44V23H43zM3,23H4V24H3zM4,23H5V24H4zM6,23H7V24H6zM7,23H8V24H7zM8,23H9V24H8zM9,23H10V24H9zM10,23H11V24H10zM11,23H12V24H11zM12,23H13V24H12zM14,23H15V24H14zM16,23H17V24H16zM19,23H20V24H19zM20,23H21V24H20zM22,23H23V24H22zM23,23H24V24H23zM24,23H25V24H24zM28,23H29V24H28zM29,23H30V24H29zM33,23H34V24H33zM34,23H35V24H34zM41,23H42V24H41zM43,23H44V24H43zM3,24H4V25H3zM4,24H5V25H4zM5,24H6V25H5zM13,24H14V25H13zM14,24H15V25H14zM15,24H16V25H15zM16,24H17V25H16zM17,24H18V25H17zM21,24H22V25H21zM22,24H23V25H22zM24,24H25V25H24zM25,24H26V25H25zM26,24H27V25H26zM27,24H28V25H27zM28,24H29V25H28zM29,24H30V25H29zM31,24H32V25H31zM32,24H33V25H32zM34,24H35V25H34zM35,24H36V25H35zM36,24H37V25H36zM37,24H38V25H37zM38,24H39V25H38zM39,24H40V25H39zM40,24H41V25H40zM41,24H42V25H41zM42,24H43V25H42zM43,24H44V25H43zM3,25H4V26H3zM5,25H6V26H5zM6,25H7V26H6zM9,25H10V26H9zM11,25H12V26H11zM12,25H13V26H12zM15,25H16V26H15zM16,25H17V26H16zM19,25H20V26H19zM20,25H21V26H20zM21,25H22V26H21zM22,25H23V26H22zM23,25H24V26H23zM24,25H25V26H24zM25,25H26V26H25zM30,25H31V26H30zM31,25H32V26H31zM33,25H34V26H33zM36,25H37V26H36zM37,25H38V26H37zM39,25H40V26H39zM41,25H42V26H41zM3,26H4V27H3zM4,26H5V27H4zM6,26H7V27H6zM7,26H8V27H7zM11,26H12V27H11zM14,26H15V27H14zM17,26H18V27H17zM20,26H21V27H20zM22,26H23V27H22zM23,26H24V27H23zM25,26H26V27H25zM27,26H28V27H27zM28,26H29V27H28zM30,26H31V27H30zM33,26H34V27H33zM35,26H36V27H35zM38,26H39V27H38zM39,26H40V27H39zM40,26H41V27H40zM42,26H43V27H42zM43,26H44V27H43zM3,27H4V28H3zM4,27H5V28H4zM5,27H6V28H5zM6,27H7V28H6zM7,27H8V28H7zM8,27H9V28H8zM9,27H10V28H9zM10,27H11V28H10zM14,27H15V28H14zM15,27H16V28H15zM17,27H18V28H17zM18,27H19V28H18zM20,27H21V28H20zM22,27H23V28H22zM24,27H25V28H24zM25,27H26V28H25zM28,27H29V28H28zM29,27H30V28H29zM32,27H33V28H32zM41,27H42V28H41zM42,27H43V28H42zM4,28H5V29H4zM8,28H9V29H8zM10,28H11V29H10zM11,28H12V29H11zM12,28H13V29H12zM13,28H14V29H13zM14,28H15V29H14zM18,28H19V29H18zM19,28H20V29H19zM20,28H21V29H20zM21,28H22V29H21zM22,28H23V29H22zM27,28H28V29H27zM28,28H29V29H28zM29,28H30V29H29zM31,28H32V29H31zM33,28H34V29H33zM34,28H35V29H34zM36,28H37V29H36zM37,28H38V29H37zM38,28H39V29H38zM39,28H40V29H39zM40,28H41V29H40zM43,28H44V29H43zM3,29H4V30H3zM4,29H5V30H4zM8,29H9V30H8zM9,29H10V30H9zM10,29H11V30H10zM14,29H15V30H14zM15,29H16V30H15zM16,29H17V30H16zM17,29H18V30H17zM18,29H19V30H18zM19,29H20V30H19zM22,29H23V30H22zM24,29H25V30H24zM26,29H27V30H26zM29,29H30V30H29zM30,29H31V30H30zM32,29H33V30H32zM33,29H34V30H33zM35,29H36V30H35zM37,29H38V30H37zM38,29H39V30H38zM39,29H40V30H39zM42,29H43V30H42zM5,30H6V31H5zM11,30H12V31H11zM14,30H15V31H14zM16,30H17V31H16zM18,30H19V31H18zM19,30H20V31H19zM20,30H21V31H20zM21,30H22V31H21zM23,30H24V31H23zM24,30H25V31H24zM25,30H26V31H25zM26,30H27V31H26zM27,30H28V31H27zM28,30H29V31H28zM33,30H34V31H33zM34,30H35V31H34zM35,30H36V31H35zM36,30H37V31H36zM38,30H39V31H38zM39,30H40V31H39zM40,30H41V31H40zM42,30H43V31H42zM43,30H44V31H43zM4,31H5V32H4zM6,31H7V32H6zM7,31H8V32H7zM8,31H9V32H8zM9,31H10V32H9zM10,31H11V32H10zM11,31H12V32H11zM12,31H13V32H12zM14,31H15V32H14zM15,31H16V32H15zM20,31H21V32H20zM23,31H24V32H23zM25,31H26V32H25zM26,31H27V32H26zM27,31H28V32H27zM28,31H29V32H28zM29,31H30V32H29zM30,31H31V32H30zM31,31H32V32H31zM32,31H33V32H32zM33,31H34V32H33zM34,31H35V32H34zM36,31H37V32H36zM40,31H41V32H40zM41,31H42V32H41zM3,32H4V33H3zM6,32H7V33H6zM7,32H8V33H7zM10,32H11V33H10zM11,32H12V33H11zM14,32H15V33H14zM15,32H16V33H15zM18,32H19V33H18zM21,32H22V33H21zM24,32H25V33H24zM26,32H27V33H26zM27,32H28V33H27zM30,32H31V33H30zM33,32H34V33H33zM35,32H36V33H35zM36,32H37V33H36zM39,32H40V33H39zM41,32H42V33H41zM43,32H44V33H43zM3,33H4V34H3zM8,33H9V34H8zM9,33H10V34H9zM11,33H12V34H11zM12,33H13V34H12zM13,33H14V34H13zM18,33H19V34H18zM22,33H23V34H22zM23,33H24V34H23zM25,33H26V34H25zM26,33H27V34H26zM27,33H28V34H27zM28,33H29V34H28zM30,33H31V34H30zM31,33H32V34H31zM34,33H35V34H34zM36,33H37V34H36zM37,33H38V34H37zM38,33H39V34H38zM39,33H40V34H39zM40,33H41V34H40zM41,33H42V34H41zM3,34H4V35H3zM7,34H8V35H7zM11,34H12V35H11zM12,34H13V35H12zM13,34H14V35H13zM20,34H21V35H20zM21,34H22V35H21zM24,34H25V35H24zM28,34H29V35H28zM30,34H31V35H30zM34,34H35V35H34zM35,34H36V35H35zM36,34H37V35H36zM37,34H38V35H37zM39,34H40V35H39zM40,34H41V35H40zM43,34H44V35H43zM3,35H4V36H3zM5,35H6V36H5zM6,35H7V36H6zM7,35H8V36H7zM9,35H10V36H9zM11,35H12V36H11zM14,35H15V36H14zM15,35H16V36H15zM18,35H19V36H18zM20,35H21V36H20zM21,35H22V36H21zM25,35H26V36H25zM26,35H27V36H26zM28,35H29V36H28zM30,35H31V36H30zM32,35H33V36H32zM34,35H35V36H34zM35,35H36V36H35zM36,35H37V36H36zM37,35H38V36H37zM38,35H39V36H38zM39,35H40V36H39zM41,35H42V36H41zM43,35H44V36H43zM11,36H12V37H11zM13,36H14V37H13zM15,36H16V37H15zM16,36H17V37H16zM20,36H21V37H20zM22,36H23V37H22zM23,36H24V37H23zM25,36H26V37H25zM27,36H28V37H27zM31,36H32V37H31zM32,36H33V37H32zM33,36H34V37H33zM35,36H36V37H35zM39,36H40V37H39zM40,36H41V37H40zM42,36H43V37H42zM43,36H44V37H43zM3,37H4V38H3zM4,37H5V38H4zM5,37H6V38H5zM6,37H7V38H6zM7,37H8V38H7zM8,37H9V38H8zM9,37H10V38H9zM14,37H15V38H14zM22,37H23V38H22zM23,37H24V38H23zM25,37H26V38H25zM27,37H28V38H27zM28,37H29V38H28zM29,37H30V38H29zM30,37H31V38H30zM31,37H32V38H31zM32,37H33V38H32zM34,37H35V38H34zM35,37H36V38H35zM37,37H38V38H37zM39,37H40V38H39zM40,37H41V38H40zM41,37H42V38H41zM3,38H4V39H3zM9,38H10V39H9zM12,38H13V39H12zM13,38H14V39H13zM14,38H15V39H14zM15,38H16V39H15zM16,38H17V39H16zM17,38H18V39H17zM18,38H19V39H18zM20,38H21V39H20zM25,38H26V39H25zM27,38H28V39H27zM28,38H29V39H28zM29,38H30V39H29zM30,38H31V39H30zM31,38H32V39H31zM32,38H33V39H32zM33,38H34V39H33zM34,38H35V39H34zM35,38H36V39H35zM39,38H40V39H39zM40,38H41V39H40zM42,38H43V39H42zM3,39H4V40H3zM5,39H6V40H5zM6,39H7V40H6zM7,39H8V40H7zM9,39H10V40H9zM11,39H12V40H11zM14,39H15V40H14zM15,39H16V40H15zM17,39H18V40H17zM25,39H26V40H25zM26,39H27V40H26zM27,39H28V40H27zM35,39H36V40H35zM36,39H37V40H36zM37,39H38V40H37zM38,39H39V40H38zM39,39H40V40H39zM41,39H42V40H41zM42,39H43V40H42zM3,40H4V41H3zM5,40H6V41H5zM6,40H7V41H6zM7,40H8V41H7zM9,40H10V41H9zM11,40H12V41H11zM13,40H14V41H13zM15,40H16V41H15zM16,40H17V41H16zM17,40H18V41H17zM20,40H21V41H20zM21,40H22V41H21zM22,40H23V41H22zM23,40H24V41H23zM26,40H27V41H26zM27,40H28V41H27zM28,40H29V41H28zM29,40H30V41H29zM31,40H32V41H31zM33,40H34V41H33zM35,40H36V41H35zM36,40H37V41H36zM38,40H39V41H38zM41,40H42V41H41zM43,40H44V41H43zM3,41H4V42H3zM5,41H6V42H5zM6,41H7V42H6zM7,41H8V42H7zM9,41H10V42H9zM11,41H12V42H11zM12,41H13V42H12zM14,41H15V42H14zM19,41H20V42H19zM23,41H24V42H23zM24,41H25V42H24zM25,41H26V42H25zM26,41H27V42H26zM29,41H30V42H29zM30,41H31V42H30zM34,41H35V42H34zM35,41H36V42H35zM36,41H37V42H36zM37,41H38V42H37zM38,41H39V42H38zM39,41H40V42H39zM42,41H43V42H42zM3,42H4V43H3zM9,42H10V43H9zM12,42H13V43H12zM14,42H15V43H14zM15,42H16V43H15zM16,42H17V43H16zM19,42H20V43H19zM20,42H21V43H20zM21,42H22V43H21zM22,42H23V43H22zM23,42H24V43H23zM24,42H25V43H24zM28,42H29V43H28zM29,42H30V43H29zM31,42H32V43H31zM34,42H35V43H34zM35,42H36V43H35zM36,42H37V43H36zM37,42H38V43H37zM39,42H40V43H39zM40,42H41V43H40zM42,42H43V43H42zM3,43H4V44H3zM4,43H5V44H4zM5,43H6V44H5zM6,43H7V44H6zM7,43H8V44H7zM8,43H9V44H8zM9,43H10V44H9zM17,43H18V44H17zM20,43H21V44H20zM21,43H22V44H21zM24,43H25V44H24zM28,43H29V44H28zM29,43H30V44H29zM31,43H32V44H31zM32,43H33V44H32zM34,43H35V44H34zM38,43H39V44H38zM39,43H40V44H39zM40,43H41V44H40zM41,43H42V44H41z" id="qr-path" fill="#000000" fill-opacity="1" fill-rule="nonzero" stroke="none"/></svg>